<svg height="512pt" viewBox="0 -165 512 512" width="512pt" xmlns="http://www.w3.org/2000/svg"><path d="m501.390625 81.46875c-13.9375-9.765625-43.179687-23.664062-96.746094-23.664062h-8.257812l-105.609375-49.28125c-12.027344-5.613282-25.140625-8.523438-38.414063-8.523438h-91.851562c-7.832031 0-15.578125 1.589844-22.773438 4.675781l-95.359375 40.867188c-6.167968 2.644531-12.808594 4.007812-19.519531 4.007812h-6.34375c-9.121094-.003906-16.515625 7.390625-16.515625 16.511719v52.28125c0 7.984375 5.707031 14.824219 13.5625 16.25l77.277344 14.050781v8.257813h404.644531c9.121094 0 16.515625-7.394532 16.515625-16.515625v-38.570313c0-8.125-3.957031-15.6875-10.609375-20.347656zm0 0" fill="#ff8086"/><path d="m161.914062 16.515625h67.167969v41.289063h-99.152343c-15.375 0-19.914063-20.953126-5.914063-27.316407l24.230469-11.011719c4.292968-1.953124 8.953125-2.960937 13.667968-2.960937zm0 0" fill="#e5646e"/><path d="m504.21875 123.871094c-6.472656 0-12.089844-3.902344-15.027344-9.671875-9.546875-18.761719-29.019531-31.621094-51.515625-31.621094-22.492187 0-41.964843 12.859375-51.515625 31.621094-2.933594 5.769531-8.550781 9.671875-15.023437 9.671875h-164.6875v-33.03125h-79.011719c-3.96875 0-7.964844-.667969-11.53125-2.410156-7.582031-3.707032-16.058594-5.851563-25.066406-5.851563-9.023438 0-17.515625 2.132813-25.101563 5.847656-3.570312 1.746094-7.578125 2.414063-11.554687 2.414063h-54.183594v27.503906c0 .96875.0898438 1.917969.253906 2.84375.160156.914062.402344 1.800781.707032 2.664062.003906.003907.003906.011719.003906.019532 1.9375 5.441406 6.644531 9.640625 12.597656 10.722656l77.277344 14.050781 16.515625 8.257813h388.128906c9.121094 0 16.515625-7.394532 16.515625-16.515625v-16.515625zm0 0" fill="#e5646e"/><path d="m495.484375 156.902344h-371.613281v-16.515625h388.128906c0 9.121093-7.394531 16.515625-16.515625 16.515625zm0 0" fill="#db4655"/><path d="m396.386719 57.804688-88.480469-41.289063h-118.621094c-7.160156 0-11.023437 8.402344-6.363281 13.839844l16.113281 18.800781c4.707032 5.488281 11.578125 8.652344 18.8125 8.652344h178.539063zm0 0" fill="#c3ddff"/><path d="m185.21875 33.03125 13.816406 16.121094c4.707032 5.492187 11.578125 8.652344 18.8125 8.652344h178.539063l-53.085938-24.773438zm0 0" fill="#a4ccff"/><path d="m206.453125 90.839844h-22.792969c-4.21875 0-6.628906 4.816406-4.097656 8.191406l13.675781 18.234375c3.121094 4.15625 8.015625 6.605469 13.214844 6.605469h22.789063c4.21875 0 6.628906-4.816406 4.097656-8.195313l-13.675782-18.230469c-3.117187-4.160156-8.015624-6.605468-13.210937-6.605468zm0 0" fill="#6f6571"/><path d="m16.515625 74.320312h-16.515625v16.519532h16.515625c4.566406 0 8.257813-3.695313 8.257813-8.261719 0-4.5625-3.691407-8.257813-8.257813-8.257813zm0 0" fill="#ff9a9f"/><path d="m478.96875 140.386719c0 22.804687-18.488281 41.289062-41.292969 41.289062-22.800781 0-41.289062-18.484375-41.289062-41.289062 0-22.804688 18.488281-41.289063 41.289062-41.289063 22.804688 0 41.292969 18.484375 41.292969 41.289063zm0 0" fill="#5d5360"/><path d="m462.449219 140.386719c0 13.679687-11.089844 24.773437-24.773438 24.773437-13.679687 0-24.773437-11.09375-24.773437-24.773437 0-13.683594 11.09375-24.773438 24.773437-24.773438 13.683594 0 24.773438 11.089844 24.773438 24.773438zm0 0" fill="#b6b1b7"/><path d="m437.675781 115.613281c-8.960937 0-16.808593 4.742188-21.15625 11.875 3.753907-2.289062 8.179688-3.617187 12.898438-3.617187 13.683593 0 24.773437 11.089844 24.773437 24.773437 0 4.71875-1.328125 9.140625-3.621094 12.894531 7.132813-4.351562 11.878907-12.1875 11.878907-21.152343.003906-13.683594-11.089844-24.773438-24.773438-24.773438zm0 0" fill="#9b959d"/><path d="m445.933594 140.386719c0 4.558593-3.695313 8.257812-8.257813 8.257812-4.558593 0-8.257812-3.699219-8.257812-8.257812 0-4.5625 3.699219-8.257813 8.257812-8.257813 4.5625 0 8.257813 3.695313 8.257813 8.257813zm0 0" fill="#dad8db"/><path d="m132.128906 140.386719c0 22.804687-18.484375 41.289062-41.289062 41.289062-22.804688 0-41.289063-18.484375-41.289063-41.289062 0-22.804688 18.484375-41.289063 41.289063-41.289063 22.804687 0 41.289062 18.484375 41.289062 41.289063zm0 0" fill="#5d5360"/><path d="m115.613281 140.386719c0 13.679687-11.09375 24.773437-24.773437 24.773437-13.683594 0-24.773438-11.09375-24.773438-24.773437 0-13.683594 11.089844-24.773438 24.773438-24.773438 13.679687 0 24.773437 11.089844 24.773437 24.773438zm0 0" fill="#b6b1b7"/><path d="m90.839844 115.613281c-8.964844 0-16.804688 4.746094-21.15625 11.875 3.753906-2.289062 8.179687-3.617187 12.898437-3.617187 13.679688 0 24.773438 11.089844 24.773438 24.773437 0 4.71875-1.332031 9.144531-3.621094 12.894531 7.132813-4.347656 11.878906-12.1875 11.878906-21.152343 0-13.683594-11.09375-24.773438-24.773437-24.773438zm0 0" fill="#9b959d"/><path d="m99.097656 140.386719c0 4.558593-3.699218 8.257812-8.257812 8.257812-4.5625 0-8.257813-3.699219-8.257813-8.257812 0-4.5625 3.695313-8.257813 8.257813-8.257813 4.558594 0 8.257812 3.695313 8.257812 8.257813zm0 0" fill="#dad8db"/><path d="m236.871094 57.804688h21.742187l-35.394531-41.289063h-21.738281zm0 0" fill="#857e87"/><path d="m215.636719 33.03125 21.234375 24.773438h21.742187l-21.234375-24.773438zm0 0" fill="#6f6571"/><path d="m495.484375 99.097656h16.363281c-.726562-6.503906-3.867187-12.394531-8.988281-16.519531h-7.375c-4.5625 0-8.257813 3.699219-8.257813 8.261719 0 4.558594 3.695313 8.257812 8.257813 8.257812zm0 0" fill="#ffc269"/><path d="m214.4375 119.3125-21.355469-28.472656h-9.421875c-4.21875 0-6.628906 4.816406-4.097656 8.191406l13.675781 18.234375c3.121094 4.15625 8.015625 6.605469 13.214844 6.605469h17.101563c-3.585938 0-6.964844-1.691406-9.117188-4.558594zm0 0" fill="#5d5360"/></svg>