<?xml version="1.0" encoding="iso-8859-1"?>
<!-- Generator: Adobe Illustrator 19.0.0, SVG Export Plug-In . SVG Version: 6.00 Build 0)  -->
<svg version="1.1" id="Layer_1" xmlns="http://www.w3.org/2000/svg" xmlns:xlink="http://www.w3.org/1999/xlink" x="0px" y="0px"
	 viewBox="0 0 512.001 512.001" style="enable-background:new 0 0 512.001 512.001;" xml:space="preserve">
<circle style="fill:#303E48;" cx="423.003" cy="396.999" r="38.782"/>
<circle style="fill:#E6E6E6;" cx="423.003" cy="396.999" r="23.712"/>
<circle style="fill:#D1D1D1;" cx="423.003" cy="396.999" r="8.172"/>
<path style="fill:#FFB04C;" d="M413.975,318.128c2.776-0.353,5.606-0.535,8.478-0.535c32.366,0,59.331,23.129,65.267,53.761
	c1.28,6.603-3.842,12.908-10.568,12.908h-89.724"/>
<circle style="fill:#303E48;" cx="66.052" cy="396.999" r="38.782"/>
<circle style="fill:#E6E6E6;" cx="66.052" cy="396.999" r="23.712"/>
<circle style="fill:#D1D1D1;" cx="66.052" cy="396.999" r="8.172"/>
<rect x="239.995" y="277.882" style="fill:#FA6657;" width="60.943" height="86.429"/>
<rect x="239.995" y="277.882" style="fill:#F44A46;" width="60.943" height="20.776"/>
<path style="fill:#303E48;" d="M292.625,282.104h-60.943v-33.242h60.943c9.179,0,16.621,7.442,16.621,16.621l0,0
	C309.246,274.663,301.805,282.104,292.625,282.104z"/>
<rect x="223.375" y="109.457" style="fill:#E6E6E6;" width="16.621" height="244.881"/>
<path style="fill:#FFB04C;" d="M439.635,319.347h13.537c5.934,0,10.743-4.81,10.743-10.743V287.79
	c0-5.934-4.81-10.743-10.743-10.743h-13.537c-11.681,0-21.151,9.469-21.151,21.151l0,0
	C418.484,309.878,427.953,319.347,439.635,319.347z"/>
<g>
	<path style="fill:#FA6657;" d="M503.69,305.084H490.6c-4.591,0-8.31-3.721-8.31-8.31c0-4.59,3.72-8.31,8.31-8.31h13.091
		c4.591,0,8.31,3.721,8.31,8.31C512.001,301.363,508.281,305.084,503.69,305.084z"/>
	<path style="fill:#FA6657;" d="M489.493,279.367c-3.294,0-6.41-1.971-7.714-5.216c-1.711-4.258,0.355-9.098,4.614-10.809
		l12.148-4.88c4.263-1.711,9.098,0.355,10.81,4.614c1.711,4.258-0.355,9.098-4.614,10.809l-12.148,4.88
		C491.573,279.174,490.524,279.367,489.493,279.367z"/>
	<path style="fill:#FA6657;" d="M501.582,334.706c-1.087,0-2.194-0.215-3.258-0.669l-12.041-5.14
		c-4.222-1.802-6.183-6.685-4.38-10.907c1.802-4.219,6.685-6.181,10.906-4.38l12.041,5.14c4.222,1.802,6.183,6.685,4.38,10.907
		C507.881,332.812,504.811,334.706,501.582,334.706z"/>
</g>
<path style="fill:#303E48;" d="M394.566,109.462c15.809,0,29.04-11.036,32.411-25.824c0.869-3.813-2.143-7.417-6.053-7.417H88.055
	c-41.062,0-74.659,33.596-74.659,74.659v93.654c0,35.334,43.159,52.533,67.461,26.884l27.832-29.374v-99.145
	c0-18.467,14.97-33.437,33.437-33.437h197.04v107.482l41.546,8.864l39.918-8.864c-4.44-38.782-16.858-75.348-35.583-107.482H394.566
	z"/>
<path style="fill:#162630;" d="M385.047,109.462h-45.88v29.918h60.666C395.468,128.299,390.538,118.885,385.047,109.462z"/>
<path style="fill:#E6E6E6;" d="M401.915,191.437c-3.359-21.443-11.717-41.29-21.12-59.629c-1.033-2.014-3.114-3.272-5.376-3.279
	l-15.471-0.042c-3.361-0.009-6.09,2.713-6.09,6.072v57.832c0,3.352,2.716,6.07,6.069,6.073l35.984,0.024
	C399.657,198.491,402.495,195.137,401.915,191.437z"/>
<path style="fill:#FFDB6C;" d="M339.166,216.944v137.399H166.308v-67.895c0-24.525-20.335-44.019-44.86-44.019H13.396v141.832
	h374.033c22.828-40.998,35.024-85.343,35.024-135.029c0-10.793-0.621-21.812-1.817-32.288H339.166z"/>
<path style="fill:#E89B46;" d="M424.793,317.645c-0.778-0.027-1.556-0.052-2.34-0.052c-2.872,0-5.702,0.182-8.478,0.535
	l-26.546,66.132h13.179C411.551,363.056,419.678,340.939,424.793,317.645z"/>
<g>
	<path style="fill:#FFB04C;" d="M422.355,242.429c-0.205-8.864-0.776-17.214-1.72-25.485h-81.469v25.485H422.355z"/>
	<path style="fill:#FFB04C;" d="M162.141,267.914c-7.169-15.118-22.812-25.485-40.691-25.485H13.396v25.485H162.141z"/>
</g>
<path style="fill:#FA6657;" d="M376.834,253.576h-9.876c-4.591,0-8.31-3.721-8.31-8.31c0-4.59,3.72-8.31,8.31-8.31h9.876
	c4.591,0,8.31,3.721,8.31,8.31C385.145,249.855,381.424,253.576,376.834,253.576z"/>
<path style="fill:#FFB04C;" d="M7.233,384.261c-4.325,0-7.7-3.965-7.18-8.258c3.985-32.91,32.013-58.409,65.998-58.409
	c36.718,0,66.484,29.95,66.484,66.669H7.233V384.261z"/>
<g>
</g>
<g>
</g>
<g>
</g>
<g>
</g>
<g>
</g>
<g>
</g>
<g>
</g>
<g>
</g>
<g>
</g>
<g>
</g>
<g>
</g>
<g>
</g>
<g>
</g>
<g>
</g>
<g>
</g>
</svg>
